<svg width="18" height="19" viewBox="0 0 18 19" fill="none" xmlns="http://www.w3.org/2000/svg">
<g clip-path="url(#clip0_3087_3268)">
<path d="M1.88453 1.24749C1.88591 0.936833 2.13887 0.68612 2.44953 0.687506C2.76019 0.688892 3.0109 0.941853 3.00952 1.25251L3.00287 2.74179C3.00016 3.34886 2.9992 3.75662 3.03289 4.06513L3.03416 4.07658C3.37648 3.70022 3.75395 3.3564 4.16139 3.05029C5.50908 2.03774 7.18525 1.4375 9 1.4375C13.4528 1.4375 17.0625 5.0472 17.0625 9.5C17.0625 13.9528 13.4528 17.5625 9 17.5625C4.5472 17.5625 0.9375 13.9528 0.9375 9.5C0.9375 9.18934 1.18934 8.9375 1.5 8.9375C1.81066 8.9375 2.0625 9.18934 2.0625 9.5C2.0625 13.3315 5.16852 16.4375 9 16.4375C12.8315 16.4375 15.9375 13.3315 15.9375 9.5C15.9375 5.66852 12.8315 2.5625 9 2.5625C7.43727 2.5625 5.99669 3.07853 4.83715 3.94972C4.46291 4.23088 4.11801 4.54903 3.80788 4.8987C3.82913 4.90155 3.85133 4.90424 3.87453 4.90678C4.18304 4.94047 4.5908 4.9395 5.19787 4.93679L6.68715 4.93015C6.99781 4.92876 7.25077 5.17947 7.25216 5.49013C7.25354 5.80079 7.00283 6.05375 6.69217 6.05513L5.17039 6.06193C4.60424 6.06447 4.13204 6.06659 3.7524 6.02513C3.3542 5.98164 2.98721 5.88445 2.6684 5.63772C2.61532 5.59665 2.56435 5.55304 2.51566 5.50705C2.43849 5.43419 2.36703 5.35537 2.30194 5.27127C2.05522 4.95246 1.95802 4.58546 1.91454 4.18726C1.87308 3.80762 1.8752 3.33545 1.87774 2.7693L1.88453 1.24749Z" fill="white"/>
<path d="M9.5625 6.5C9.5625 6.18934 9.31066 5.9375 9 5.9375C8.68934 5.9375 8.4375 6.18934 8.4375 6.5L8.4375 8.54409C8.43749 8.94445 8.43748 9.28498 8.46533 9.56759C8.49501 9.86865 8.55937 10.1477 8.71383 10.4152C8.86829 10.6828 9.07777 10.878 9.32366 11.0542C9.55448 11.2197 9.8494 11.3899 10.1961 11.5901L10.6674 11.8621C10.9364 12.0175 11.2804 11.9253 11.4358 11.6562C11.5911 11.3872 11.4989 11.0432 11.2299 10.8879L10.7813 10.6289C10.4058 10.4121 10.1595 10.2692 9.97901 10.1398C9.80863 10.0177 9.73461 9.93327 9.6881 9.85272C9.6416 9.77217 9.60547 9.66584 9.58491 9.45723C9.56313 9.2363 9.5625 8.95152 9.5625 8.51793L9.5625 6.5Z" fill="white"/>
<path d="M1.88453 1.24749C1.88591 0.936833 2.13887 0.68612 2.44953 0.687506C2.76019 0.688892 3.0109 0.941853 3.00952 1.25251L3.00287 2.74179C3.00016 3.34886 2.9992 3.75662 3.03289 4.06513L3.03416 4.07658C3.37648 3.70022 3.75395 3.3564 4.16139 3.05029C5.50908 2.03774 7.18525 1.4375 9 1.4375C13.4528 1.4375 17.0625 5.0472 17.0625 9.5C17.0625 13.9528 13.4528 17.5625 9 17.5625C4.5472 17.5625 0.9375 13.9528 0.9375 9.5C0.9375 9.18934 1.18934 8.9375 1.5 8.9375C1.81066 8.9375 2.0625 9.18934 2.0625 9.5C2.0625 13.3315 5.16852 16.4375 9 16.4375C12.8315 16.4375 15.9375 13.3315 15.9375 9.5C15.9375 5.66852 12.8315 2.5625 9 2.5625C7.43727 2.5625 5.99669 3.07853 4.83715 3.94972C4.46291 4.23088 4.11801 4.54903 3.80788 4.8987C3.82913 4.90155 3.85133 4.90424 3.87453 4.90678C4.18304 4.94047 4.5908 4.9395 5.19787 4.93679L6.68715 4.93015C6.99781 4.92876 7.25077 5.17947 7.25216 5.49013C7.25354 5.80079 7.00283 6.05375 6.69217 6.05513L5.17039 6.06193C4.60424 6.06447 4.13204 6.06659 3.7524 6.02513C3.3542 5.98164 2.98721 5.88445 2.6684 5.63772C2.61532 5.59665 2.56435 5.55304 2.51566 5.50705C2.43849 5.43419 2.36703 5.35537 2.30194 5.27127C2.05522 4.95246 1.95802 4.58546 1.91454 4.18726C1.87308 3.80762 1.8752 3.33545 1.87774 2.7693L1.88453 1.24749Z" stroke="white"/>
<path d="M9.5625 6.5C9.5625 6.18934 9.31066 5.9375 9 5.9375C8.68934 5.9375 8.4375 6.18934 8.4375 6.5L8.4375 8.54409C8.43749 8.94445 8.43748 9.28498 8.46533 9.56759C8.49501 9.86865 8.55937 10.1477 8.71383 10.4152C8.86829 10.6828 9.07777 10.878 9.32366 11.0542C9.55448 11.2197 9.8494 11.3899 10.1961 11.5901L10.6674 11.8621C10.9364 12.0175 11.2804 11.9253 11.4358 11.6562C11.5911 11.3872 11.4989 11.0432 11.2299 10.8879L10.7813 10.6289C10.4058 10.4121 10.1595 10.2692 9.97901 10.1398C9.80863 10.0177 9.73461 9.93327 9.6881 9.85272C9.6416 9.77217 9.60547 9.66584 9.58491 9.45723C9.56313 9.2363 9.5625 8.95152 9.5625 8.51793L9.5625 6.5Z" stroke="white"/>
</g>
<defs>
<clipPath id="clip0_3087_3268">
<rect width="18" height="18" fill="white" transform="translate(0 0.5)"/>
</clipPath>
</defs>
</svg>
