<svg width="21" height="21" viewBox="0 0 21 21" fill="none" xmlns="http://www.w3.org/2000/svg">
<path fill-rule="evenodd" clip-rule="evenodd" d="M13.7948 4.10458C13.1464 3.7302 12.6057 3.418 12.1431 3.22789C11.6549 3.02722 11.1685 2.92505 10.65 3.06398C10.1315 3.20291 9.76132 3.5346 9.43882 3.9525C9.13329 4.34843 8.82113 4.88914 8.44679 5.53757L5.2171 11.1315C4.99997 11.5068 4.8226 11.8135 4.73295 12.1427C4.72014 12.1898 4.70912 12.2373 4.70004 12.2855C4.62734 12.6713 4.68666 13.0587 4.76169 13.5486L4.7819 13.681C4.92039 14.5905 5.03454 15.3401 5.20671 15.9086C5.38677 16.5031 5.66356 17.0177 6.20796 17.332C6.75235 17.6463 7.3364 17.6287 7.94131 17.4874C8.5197 17.3523 9.22597 17.0763 10.0828 16.7415L10.2076 16.6928C10.6694 16.5128 11.0345 16.3705 11.3323 16.1147C11.6301 15.8588 11.8258 15.5192 12.0732 15.0898L15.3028 9.49591C15.6772 8.84751 15.9894 8.30681 16.1795 7.84424C16.3802 7.356 16.4824 6.86959 16.3434 6.3511C16.2045 5.83261 15.8728 5.46245 15.4549 5.13996C15.059 4.83442 14.5183 4.52226 13.8698 4.14792L13.7948 4.10458ZM13.8861 9.4497L9.19515 6.74137L6.34229 11.6827C6.03149 12.221 5.95672 12.3668 5.92842 12.5169C5.90013 12.6671 5.91672 12.8301 6.01031 13.4446C6.15802 14.4144 6.26004 15.0741 6.40304 15.5463C6.54118 16.0024 6.68362 16.1633 6.83295 16.2495C6.98228 16.3357 7.19286 16.3786 7.65692 16.2702C8.13732 16.1579 8.75962 15.9165 9.67335 15.5595C10.2523 15.3333 10.4018 15.2662 10.5177 15.1666C10.6336 15.067 10.7225 14.9293 11.0333 14.391L13.8861 9.4497ZM14.5098 8.36642C14.744 7.9537 14.9129 7.63776 15.0234 7.36906C15.1709 7.01018 15.1758 6.82297 15.136 6.67462C15.0963 6.52628 14.9984 6.36661 14.6912 6.12956C14.3697 5.88142 13.903 5.61046 13.2073 5.20878C12.5116 4.80711 12.0436 4.53845 11.6679 4.38405C11.309 4.23655 11.1218 4.23164 10.9735 4.27139C10.8251 4.31114 10.6655 4.40899 10.4284 4.71617C10.2509 4.94616 10.0618 5.2504 9.82146 5.65959L14.5098 8.36642Z" fill="#71899E"/>
</svg>
