<svg width="19" height="18" viewBox="0 0 19 18" fill="none" xmlns="http://www.w3.org/2000/svg">
<g id="Group 6">
<path id="Vector" d="M7.18359 0.924952V2.80084" stroke="#71899E" stroke-width="1.5" stroke-miterlimit="10" stroke-linecap="round"/>
<path id="Vector_2" d="M3.20312 2.57338L4.52962 3.89984" stroke="#71899E" stroke-width="1.5" stroke-miterlimit="10" stroke-linecap="round"/>
<path id="Vector_3" d="M1.55273 6.55353H3.42862" stroke="#71899E" stroke-width="1.5" stroke-miterlimit="10" stroke-linecap="round"/>
<path id="Vector_4" d="M10.1355 6.8454L8.91953 5.6294C8.86145 5.57136 8.81537 5.50238 8.78394 5.42651C8.75252 5.35064 8.73633 5.2693 8.73633 5.18712C8.73633 5.10502 8.75252 5.02368 8.78394 4.94778C8.81537 4.87191 8.86145 4.80293 8.91953 4.74485L10.6886 2.97618C10.8059 2.859 10.9649 2.79316 11.1307 2.79316C11.2965 2.79316 11.4555 2.859 11.5728 2.97618L12.7891 4.19218C12.8037 4.20672 12.8152 4.22393 12.8231 4.24296C12.831 4.26192 12.835 4.28226 12.835 4.30279C12.835 4.32335 12.831 4.34373 12.8231 4.36266C12.8152 4.38169 12.8037 4.3989 12.7891 4.41341L10.3568 6.8454C10.3422 6.85994 10.325 6.87143 10.306 6.87937C10.287 6.88721 10.2667 6.8913 10.2461 6.8913C10.2257 6.8913 10.2052 6.88721 10.1863 6.87937C10.1673 6.87143 10.1501 6.85994 10.1355 6.8454Z" fill="#71899E"/>
<path id="Vector_5" d="M4.83062 12.1527L3.61462 10.9364C3.49745 10.8191 3.43164 10.6601 3.43164 10.4943C3.43164 10.3285 3.49745 10.1695 3.61462 10.0522L5.38333 8.28317C5.44141 8.22509 5.51035 8.179 5.58626 8.14758C5.66213 8.11608 5.74343 8.09989 5.8256 8.09989C5.90774 8.09989 5.98908 8.11608 6.06495 8.14758C6.14086 8.179 6.2098 8.22509 6.26784 8.28317L7.48384 9.49916C7.49839 9.51367 7.50991 9.53092 7.51782 9.54987C7.52566 9.56887 7.5297 9.58921 7.5297 9.60977C7.5297 9.63034 7.52566 9.65064 7.51782 9.66964C7.50991 9.6886 7.49839 9.70584 7.48384 9.72039L5.05189 12.1527C5.03737 12.1673 5.02013 12.1788 5.00114 12.1867C4.98214 12.1945 4.9618 12.1986 4.94127 12.1986C4.92075 12.1986 4.90036 12.1945 4.88141 12.1867C4.86241 12.1788 4.8452 12.1673 4.83062 12.1527Z" fill="#71899E"/>
<path id="Vector_6" d="M16.4407 15.7984C15.9181 16.3216 15.2975 16.7368 14.6145 17.0201C13.9314 17.3034 13.1992 17.4493 12.4597 17.4495C11.7202 17.4497 10.9879 17.3042 10.3047 17.0214C9.62142 16.7384 9.00061 16.3237 8.47769 15.8008L5.9345 13.258C5.91995 13.2435 5.90843 13.2262 5.90056 13.2073C5.89272 13.1883 5.88867 13.1679 5.88867 13.1474C5.88867 13.1268 5.89272 13.1065 5.90056 13.0875C5.90847 13.0685 5.91995 13.0513 5.9345 13.0368L8.36707 10.6046C8.38162 10.59 8.39883 10.5786 8.41786 10.5707C8.43682 10.5628 8.45716 10.5588 8.47769 10.5588C8.49825 10.5588 8.51863 10.5628 8.53755 10.5707C8.55658 10.5786 8.57379 10.59 8.5883 10.6046L11.1292 13.1474C11.3053 13.3235 11.5148 13.4628 11.7453 13.5572C11.9759 13.6515 12.2229 13.699 12.472 13.6968C12.7212 13.6947 12.9673 13.6429 13.1962 13.5447C13.4251 13.4463 13.6322 13.3035 13.8052 13.1243C14.5206 12.3847 14.4881 11.1995 13.7607 10.4721L11.2417 7.95235C11.2272 7.93784 11.2157 7.92056 11.2078 7.9016C11.2 7.88264 11.1959 7.86222 11.1959 7.84173C11.1959 7.82117 11.2 7.80086 11.2078 7.78183C11.2157 7.76284 11.2272 7.74563 11.2417 7.73112L13.6739 5.29855C13.6884 5.28404 13.7057 5.27248 13.7247 5.26464C13.7437 5.25673 13.764 5.25272 13.7845 5.25272C13.8051 5.25272 13.8255 5.25673 13.8444 5.26464C13.8634 5.27248 13.8807 5.28404 13.8952 5.29855L16.4 7.80345C18.6035 10.0058 18.6426 13.5938 16.4407 15.7984Z" fill="#71899E"/>
</g>
</svg>
