<svg width="20" height="20" viewBox="0 0 20 20" fill="none" xmlns="http://www.w3.org/2000/svg">
<path fill-rule="evenodd" clip-rule="evenodd" d="M13.2948 3.60458C12.6464 3.2302 12.1057 2.918 11.6431 2.72789C11.1549 2.52722 10.6685 2.42505 10.15 2.56398C9.63148 2.70291 9.26132 3.0346 8.93882 3.4525C8.63329 3.84843 8.32113 4.38914 7.94679 5.03757L4.7171 10.6315C4.49997 11.0068 4.3226 11.3135 4.23295 11.6427C4.22014 11.6898 4.20912 11.7373 4.20004 11.7855C4.12734 12.1713 4.18666 12.5587 4.26169 13.0486L4.2819 13.181C4.42039 14.0905 4.53454 14.8401 4.70671 15.4086C4.88677 16.0031 5.16356 16.5177 5.70796 16.832C6.25235 17.1463 6.8364 17.1287 7.44131 16.9874C8.0197 16.8523 8.72597 16.5763 9.58283 16.2415L9.70762 16.1928C10.1694 16.0128 10.5345 15.8705 10.8323 15.6147C11.1301 15.3588 11.3258 15.0192 11.5732 14.5898L14.8028 8.99591C15.1772 8.34751 15.4894 7.80681 15.6795 7.34424C15.8802 6.856 15.9824 6.36959 15.8434 5.8511C15.7045 5.33261 15.3728 4.96245 14.9549 4.63996C14.559 4.33442 14.0183 4.02226 13.3698 3.64792L13.2948 3.60458ZM13.3861 8.9497L8.69515 6.24137L5.84229 11.1827C5.53149 11.721 5.45672 11.8668 5.42842 12.0169C5.40013 12.1671 5.41672 12.3301 5.51031 12.9446C5.65802 13.9144 5.76004 14.5741 5.90304 15.0463C6.04118 15.5024 6.18362 15.6633 6.33295 15.7495C6.48228 15.8357 6.69286 15.8786 7.15692 15.7702C7.63732 15.6579 8.25962 15.4165 9.17335 15.0595C9.75233 14.8333 9.90178 14.7662 10.0177 14.6666C10.1336 14.567 10.2225 14.4293 10.5333 13.891L13.3861 8.9497ZM14.0098 7.86642C14.244 7.4537 14.4129 7.13776 14.5234 6.86906C14.6709 6.51018 14.6758 6.32297 14.636 6.17462C14.5963 6.02628 14.4984 5.86661 14.1912 5.62956C13.8697 5.38142 13.403 5.11046 12.7073 4.70878C12.0116 4.30711 11.5436 4.03845 11.1679 3.88405C10.809 3.73655 10.6218 3.73164 10.4735 3.77139C10.3251 3.81114 10.1655 3.90899 9.92842 4.21617C9.75094 4.44616 9.56178 4.7504 9.32146 5.15959L14.0098 7.86642Z" fill="#010101"/>
</svg>
