<svg width="14" height="14" viewBox="0 0 14 14" fill="none" xmlns="http://www.w3.org/2000/svg">
<g clip-path="url(#clip0_3087_2932)">
<path fill-rule="evenodd" clip-rule="evenodd" d="M10.4532 2.86655C11.0808 2.93455 11.5894 3.07579 12.0235 3.39124C12.2864 3.58221 12.5175 3.81336 12.7085 4.07621C13.0239 4.51038 13.1652 5.01889 13.2332 5.64649C13.2998 6.26148 13.2998 7.03667 13.2998 8.02555V8.07434C13.2998 9.06322 13.2998 9.83838 13.2332 10.4534C13.1652 11.081 13.0239 11.5895 12.7085 12.0236C12.5175 12.2865 12.2864 12.5176 12.0235 12.7086C11.5894 13.0241 11.0808 13.1653 10.4532 13.2333C9.83826 13.2999 9.06306 13.2999 8.07418 13.2999H8.02539C7.03651 13.2999 6.26135 13.2999 5.64637 13.2333C5.01877 13.1653 4.51026 13.0241 4.07609 12.7086C3.81324 12.5176 3.58209 12.2865 3.39112 12.0236C3.07567 11.5895 2.93442 11.081 2.86643 10.4534C2.7998 9.83837 2.7998 9.0632 2.7998 8.0743V8.04399C2.7998 7.41934 2.7998 6.88229 2.81562 6.42071C2.85018 5.41194 2.95935 4.67049 3.39112 4.07621C3.58209 3.81336 3.81324 3.58221 4.07609 3.39124C4.67036 2.95947 5.41181 2.8503 6.42059 2.81574C6.88216 2.79993 7.4192 2.79993 8.04384 2.79993H8.07417C9.06307 2.79992 9.83824 2.79992 10.4532 2.86655ZM8.0498 3.60762C9.06834 3.60762 9.79981 3.60817 10.3662 3.66954C10.9251 3.73009 11.2752 3.84594 11.5488 4.04468C11.7431 4.18583 11.9139 4.35668 12.0551 4.55096C12.2538 4.8245 12.3696 5.17461 12.4302 5.73349C12.4916 6.29992 12.4921 7.03139 12.4921 8.04993C12.4921 9.06847 12.4916 9.79993 12.4302 10.3664C12.3696 10.9252 12.2538 11.2754 12.0551 11.5489C11.9139 11.7432 11.7431 11.914 11.5488 12.0552C11.2752 12.2539 10.9251 12.3698 10.3662 12.4303C9.79981 12.4917 9.06834 12.4922 8.0498 12.4922C7.03127 12.4922 6.2998 12.4917 5.73337 12.4303C5.17449 12.3698 4.82438 12.2539 4.55084 12.0552C4.35656 11.914 4.18571 11.7432 4.04455 11.5489C3.84582 11.2754 3.72997 10.9252 3.66942 10.3664C3.60805 9.79993 3.6075 9.06847 3.6075 8.04993C3.6075 7.59312 3.60752 7.19281 3.61332 6.83741L3.64381 6.0292C3.6943 5.29671 3.81004 4.87374 4.04455 4.55096C4.18571 4.35668 4.35656 4.18583 4.55084 4.04468C4.87362 3.81016 5.29658 3.69443 6.02907 3.64393L6.83728 3.61344C7.19269 3.60765 7.593 3.60762 8.0498 3.60762Z" fill="#71899E"/>
<path d="M1.4002 6.64995C1.4002 6.13224 1.40023 5.67856 1.4068 5.27576L1.44135 4.35979C1.49858 3.52963 1.62974 3.05027 1.89553 2.68445C2.0555 2.46427 2.46451 2.05525 2.6847 1.89528C3.05052 1.6295 3.52988 1.49833 4.36003 1.44111L5.27601 1.40655C5.6788 1.39998 6.13249 1.39995 6.6502 1.39995H9.8002C9.9935 1.39995 10.1502 1.24325 10.1502 1.04995C10.1502 0.856651 9.9935 0.699951 9.8002 0.699951H6.67781H6.64344C5.93551 0.699951 5.32687 0.699951 4.80375 0.717874C3.66047 0.757044 2.82016 0.880768 2.14665 1.37011C1.84875 1.58654 1.58678 1.84851 1.37035 2.1464C0.881012 2.81992 0.757288 3.66023 0.718118 4.80351C0.700195 5.32663 0.700195 5.93529 0.700195 6.64323V9.79995C0.700195 9.99325 0.856896 10.15 1.0502 10.15C1.2435 10.15 1.4002 9.99325 1.4002 9.79995V6.64995Z" fill="#71899E"/>
</g>
<defs>
<clipPath id="clip0_3087_2932">
<rect width="14" height="14" fill="white"/>
</clipPath>
</defs>
</svg>
