<svg width="20" height="21" viewBox="0 0 20 21" fill="none" xmlns="http://www.w3.org/2000/svg">
<path fill-rule="evenodd" clip-rule="evenodd" d="M9.99967 1.54163C7.81355 1.54163 6.04134 3.31383 6.04134 5.49996V5.70829H3.33301C2.98783 5.70829 2.70801 5.98811 2.70801 6.33329C2.70801 6.67847 2.98783 6.95829 3.33301 6.95829H16.6663C17.0115 6.95829 17.2913 6.67847 17.2913 6.33329C17.2913 5.98811 17.0115 5.70829 16.6663 5.70829H13.958V5.49996C13.958 3.31383 12.1858 1.54163 9.99967 1.54163ZM9.99967 2.79163C11.4954 2.79163 12.708 4.00419 12.708 5.49996V5.70829H7.29134V5.49996C7.29134 4.00419 8.5039 2.79163 9.99967 2.79163Z" fill="#D32F2F"/>
<path d="M4.78854 7.94084C4.75589 7.59721 4.45085 7.34511 4.10722 7.37776C3.76359 7.41041 3.51149 7.71545 3.54414 8.05908C3.62287 8.88764 3.76495 9.90855 3.94757 11.2208L4.1822 12.9067C4.4065 14.519 4.53371 15.4334 4.80892 16.1824C5.32109 17.5765 6.23472 18.694 7.40972 19.1898C8.04778 19.4591 8.77761 19.4588 9.86411 19.4583H10.1352C11.2217 19.4588 11.9516 19.4591 12.5896 19.1898C13.7646 18.694 14.6783 17.5765 15.1904 16.1824C15.4656 15.4334 15.5928 14.519 15.8172 12.9067L16.0518 11.2209C16.2344 9.90856 16.3765 8.88765 16.4552 8.05908C16.4879 7.71545 16.2358 7.41041 15.8921 7.37776C15.5485 7.34511 15.2435 7.59721 15.2108 7.94084C15.135 8.73915 14.9967 9.73332 14.8116 11.0634L14.593 12.6342C14.3509 14.3739 14.24 15.1446 14.0171 15.7514C13.5872 16.9215 12.8723 17.7138 12.1036 18.0382C11.7285 18.1965 11.274 18.2083 9.99967 18.2083C8.72537 18.2083 8.27087 18.1965 7.89571 18.0382C7.127 17.7138 6.41214 16.9215 5.98223 15.7514C5.75931 15.1446 5.64843 14.3739 5.40632 12.6342L5.18771 11.0634C5.00261 9.73332 4.86439 8.73915 4.78854 7.94084Z" fill="#D32F2F"/>
<path d="M8.95801 8.83329C8.95801 8.48812 8.67819 8.20829 8.33301 8.20829C7.98783 8.20829 7.70801 8.48812 7.70801 8.83329V15.5C7.70801 15.8451 7.98783 16.125 8.33301 16.125C8.67819 16.125 8.95801 15.8451 8.95801 15.5V8.83329Z" fill="#D32F2F"/>
<path d="M12.2913 8.83329C12.2913 8.48812 12.0115 8.20829 11.6663 8.20829C11.3212 8.20829 11.0413 8.48812 11.0413 8.83329V15.5C11.0413 15.8451 11.3212 16.125 11.6663 16.125C12.0115 16.125 12.2913 15.8451 12.2913 15.5V8.83329Z" fill="#D32F2F"/>
</svg>
