<svg width="18" height="19" viewBox="0 0 18 19" fill="none" xmlns="http://www.w3.org/2000/svg">
<path fill-rule="evenodd" clip-rule="evenodd" d="M13.6912 11.4984L13.8879 10.0846C13.9484 9.64963 14.0038 9.25198 14.053 8.8872C14.1541 8.13757 14.2046 7.76276 13.9805 7.50638C13.7564 7.25 13.3712 7.25 12.6007 7.25H5.39928C4.62887 7.25 4.24366 7.25 4.01953 7.50638C3.79541 7.76276 3.84595 8.13757 3.94704 8.8872C3.99625 9.25209 4.05155 9.64947 4.11211 10.0846L4.30886 11.4984C4.5227 13.0349 4.62962 13.8032 4.85632 14.4202C5.28026 15.5741 6.01308 16.4335 6.88774 16.8026C7.35548 17 7.90366 17 9.00001 17C10.0964 17 10.6445 17 11.1123 16.8026C11.9869 16.4335 12.7198 15.5741 13.1437 14.4202C13.3704 13.8032 13.4773 13.0349 13.6912 11.4984ZM8.0625 8.75C8.0625 8.43934 7.81066 8.1875 7.5 8.1875C7.18934 8.1875 6.9375 8.43934 6.9375 8.75V14.75C6.9375 15.0607 7.18934 15.3125 7.5 15.3125C7.81066 15.3125 8.0625 15.0607 8.0625 14.75V8.75ZM11.0625 8.75C11.0625 8.43934 10.8107 8.1875 10.5 8.1875C10.1893 8.1875 9.9375 8.43934 9.9375 8.75V14.75C9.9375 15.0607 10.1893 15.3125 10.5 15.3125C10.8107 15.3125 11.0625 15.0607 11.0625 14.75V8.75Z" fill="#71899E"/>
<path d="M9 1.4375C7.03249 1.4375 5.4375 3.03249 5.4375 5V5.1875H3C2.68934 5.1875 2.4375 5.43934 2.4375 5.75C2.4375 6.06066 2.68934 6.3125 3 6.3125H15C15.3107 6.3125 15.5625 6.06066 15.5625 5.75C15.5625 5.43934 15.3107 5.1875 15 5.1875H12.5625V5C12.5625 3.03249 10.9675 1.4375 9 1.4375Z" fill="#71899E"/>
</svg>
