<svg width="18" height="19" viewBox="0 0 18 19" fill="none" xmlns="http://www.w3.org/2000/svg">
<path d="M6 7.4375C5.68934 7.4375 5.4375 7.68934 5.4375 8C5.4375 8.31066 5.68934 8.5625 6 8.5625H8.25C8.56066 8.5625 8.8125 8.31066 8.8125 8C8.8125 7.68934 8.56066 7.4375 8.25 7.4375H6Z" fill="#2D264B"/>
<path d="M6 10.4375C5.68934 10.4375 5.4375 10.6893 5.4375 11C5.4375 11.3107 5.68934 11.5625 6 11.5625H12C12.3107 11.5625 12.5625 11.3107 12.5625 11C12.5625 10.6893 12.3107 10.4375 12 10.4375H6Z" fill="#2D264B"/>
<path fill-rule="evenodd" clip-rule="evenodd" d="M11.2693 1.45953C10.6264 1.4375 9.87834 1.4375 9.0083 1.4375H8.96606C7.58866 1.43749 6.50896 1.43749 5.65236 1.5303C4.7782 1.625 4.06992 1.82174 3.46518 2.26111C3.09907 2.52711 2.77711 2.84907 2.51111 3.21518C2.07174 3.81992 1.875 4.5282 1.7803 5.40236C1.68749 6.25896 1.68749 7.33866 1.6875 8.71606V10.2839C1.68749 11.6613 1.68749 12.741 1.7803 13.5976C1.875 14.4718 2.07174 15.1801 2.51111 15.7848C2.77711 16.1509 3.09907 16.4729 3.46518 16.7389C4.06992 17.1783 4.7782 17.375 5.65236 17.4697C6.50894 17.5625 7.58862 17.5625 8.96599 17.5625H9.03395C10.4113 17.5625 11.4911 17.5625 12.3476 17.4697C13.2218 17.375 13.9301 17.1783 14.5348 16.7389C14.9009 16.4729 15.2229 16.1509 15.4889 15.7848C15.9283 15.1801 16.125 14.4718 16.2197 13.5976C16.3125 12.7411 16.3125 11.6614 16.3125 10.284V8.74174C16.3125 7.87168 16.3125 7.12365 16.2905 6.48074C16.2423 5.07566 16.0903 4.04292 15.4889 3.21518C15.2229 2.84907 14.9009 2.52711 14.5348 2.26111C13.7071 1.65972 12.6743 1.50767 11.2693 1.45953ZM4.12643 3.17126C4.50744 2.89444 4.9951 2.73309 5.77353 2.64875C6.56249 2.56327 7.58132 2.5625 9 2.5625C9.63626 2.5625 10.1938 2.56254 10.6889 2.57061C10.6921 2.9266 10.7032 3.18867 10.7406 3.42462C11.0329 5.26991 12.4801 6.71714 14.3254 7.00941C14.5613 7.04678 14.8234 7.05786 15.1794 7.06113C15.1875 7.55616 15.1875 8.11374 15.1875 8.75V10.25C15.1875 11.6687 15.1867 12.6875 15.1012 13.4765C15.0169 14.2549 14.8556 14.7426 14.5787 15.1236C14.3821 15.3942 14.1442 15.6321 13.8736 15.8287C13.4926 16.1056 13.0049 16.2669 12.2265 16.3512C11.4375 16.4367 10.4187 16.4375 9 16.4375C7.58132 16.4375 6.56249 16.4367 5.77353 16.3512C4.9951 16.2669 4.50744 16.1056 4.12643 15.8287C3.85583 15.6321 3.61786 15.3942 3.42126 15.1236C3.14444 14.7426 2.98309 14.2549 2.89875 13.4765C2.81327 12.6875 2.8125 11.6687 2.8125 10.25V8.75C2.8125 7.33132 2.81327 6.3125 2.89875 5.52353C2.98309 4.7451 3.14444 4.25744 3.42126 3.87643C3.61786 3.60583 3.85583 3.36786 4.12643 3.17126ZM11.8517 3.24864C11.8274 3.09486 11.8181 2.91679 11.8146 2.61308C12.8348 2.68341 13.424 2.84461 13.8736 3.17126C14.1442 3.36786 14.3821 3.60583 14.5787 3.87643C14.9054 4.32602 15.0666 4.91516 15.1369 5.93541C14.8332 5.9319 14.6551 5.92261 14.5014 5.89826C13.1375 5.68224 12.0678 4.61254 11.8517 3.24864Z" fill="#2D264B"/>
<path d="M6 7.4375C5.68934 7.4375 5.4375 7.68934 5.4375 8C5.4375 8.31066 5.68934 8.5625 6 8.5625H8.25C8.56066 8.5625 8.8125 8.31066 8.8125 8C8.8125 7.68934 8.56066 7.4375 8.25 7.4375H6Z" stroke="#010101"/>
<path d="M6 10.4375C5.68934 10.4375 5.4375 10.6893 5.4375 11C5.4375 11.3107 5.68934 11.5625 6 11.5625H12C12.3107 11.5625 12.5625 11.3107 12.5625 11C12.5625 10.6893 12.3107 10.4375 12 10.4375H6Z" stroke="#010101"/>
<path fill-rule="evenodd" clip-rule="evenodd" d="M11.2693 1.45953C10.6264 1.4375 9.87834 1.4375 9.0083 1.4375H8.96606C7.58866 1.43749 6.50896 1.43749 5.65236 1.5303C4.7782 1.625 4.06992 1.82174 3.46518 2.26111C3.09907 2.52711 2.77711 2.84907 2.51111 3.21518C2.07174 3.81992 1.875 4.5282 1.7803 5.40236C1.68749 6.25896 1.68749 7.33866 1.6875 8.71606V10.2839C1.68749 11.6613 1.68749 12.741 1.7803 13.5976C1.875 14.4718 2.07174 15.1801 2.51111 15.7848C2.77711 16.1509 3.09907 16.4729 3.46518 16.7389C4.06992 17.1783 4.7782 17.375 5.65236 17.4697C6.50894 17.5625 7.58862 17.5625 8.96599 17.5625H9.03395C10.4113 17.5625 11.4911 17.5625 12.3476 17.4697C13.2218 17.375 13.9301 17.1783 14.5348 16.7389C14.9009 16.4729 15.2229 16.1509 15.4889 15.7848C15.9283 15.1801 16.125 14.4718 16.2197 13.5976C16.3125 12.7411 16.3125 11.6614 16.3125 10.284V8.74174C16.3125 7.87168 16.3125 7.12365 16.2905 6.48074C16.2423 5.07566 16.0903 4.04292 15.4889 3.21518C15.2229 2.84907 14.9009 2.52711 14.5348 2.26111C13.7071 1.65972 12.6743 1.50767 11.2693 1.45953ZM4.12643 3.17126C4.50744 2.89444 4.9951 2.73309 5.77353 2.64875C6.56249 2.56327 7.58132 2.5625 9 2.5625C9.63626 2.5625 10.1938 2.56254 10.6889 2.57061C10.6921 2.9266 10.7032 3.18867 10.7406 3.42462C11.0329 5.26991 12.4801 6.71714 14.3254 7.00941C14.5613 7.04678 14.8234 7.05786 15.1794 7.06113C15.1875 7.55616 15.1875 8.11374 15.1875 8.75V10.25C15.1875 11.6687 15.1867 12.6875 15.1012 13.4765C15.0169 14.2549 14.8556 14.7426 14.5787 15.1236C14.3821 15.3942 14.1442 15.6321 13.8736 15.8287C13.4926 16.1056 13.0049 16.2669 12.2265 16.3512C11.4375 16.4367 10.4187 16.4375 9 16.4375C7.58132 16.4375 6.56249 16.4367 5.77353 16.3512C4.9951 16.2669 4.50744 16.1056 4.12643 15.8287C3.85583 15.6321 3.61786 15.3942 3.42126 15.1236C3.14444 14.7426 2.98309 14.2549 2.89875 13.4765C2.81327 12.6875 2.8125 11.6687 2.8125 10.25V8.75C2.8125 7.33132 2.81327 6.3125 2.89875 5.52353C2.98309 4.7451 3.14444 4.25744 3.42126 3.87643C3.61786 3.60583 3.85583 3.36786 4.12643 3.17126ZM11.8517 3.24864C11.8274 3.09486 11.8181 2.91679 11.8146 2.61308C12.8348 2.68341 13.424 2.84461 13.8736 3.17126C14.1442 3.36786 14.3821 3.60583 14.5787 3.87643C14.9054 4.32602 15.0666 4.91516 15.1369 5.93541C14.8332 5.9319 14.6551 5.92261 14.5014 5.89826C13.1375 5.68224 12.0678 4.61254 11.8517 3.24864Z" stroke="#010101"/>
</svg>
