<svg width="18" height="18" viewBox="0 0 18 18" fill="none" xmlns="http://www.w3.org/2000/svg">
<g id="Logout">
<g id="Vector">
<path d="M6.43266 0.875003C5.72264 0.874947 5.29015 0.874913 4.91709 0.934C2.86677 1.25874 1.25874 2.86677 0.934 4.91709C0.874913 5.29015 0.874947 5.72264 0.875004 6.43266L0.875003 11.5674C0.874947 12.2774 0.874913 12.7099 0.934 13.0829C1.25874 15.1332 2.86677 16.7413 4.91709 17.066C5.29016 17.1251 5.72265 17.1251 6.43267 17.125L7.33334 17.125C8.41133 17.125 9.4078 16.7683 10.2087 16.1667C10.4847 15.9594 10.5404 15.5676 10.3331 15.2916C10.1258 15.0156 9.73397 14.9599 9.45798 15.1673C8.86611 15.6118 8.13136 15.875 7.33334 15.875H6.50001C5.70195 15.875 5.37569 15.8731 5.11263 15.8314C3.59718 15.5914 2.40863 14.4028 2.16861 12.8874C2.12695 12.6243 2.12501 12.2981 2.12501 11.5L2.12501 6.50001C2.12501 5.70195 2.12695 5.37569 2.16861 5.11263C2.40863 3.59718 3.59718 2.40863 5.11264 2.16861C5.37569 2.12695 5.70195 2.12501 6.50001 2.12501H7.33334C8.13136 2.12501 8.86611 2.3882 9.45798 2.83276C9.73397 3.04007 10.1258 2.98439 10.3331 2.7084C10.5404 2.4324 10.4847 2.04061 10.2087 1.83331C9.4078 1.23173 8.41133 0.875007 7.33334 0.875007L6.43266 0.875003Z" fill="#D32F2F"/>
<path d="M13.555 5.17694C13.2845 4.96248 12.8914 5.00789 12.6769 5.27837C12.4625 5.54884 12.5079 5.94195 12.7784 6.15641L14.2475 7.32128C14.8342 7.78646 15.2359 8.10613 15.5087 8.37501L4.83334 8.37501C4.48816 8.37501 4.20834 8.65483 4.20834 9.00001C4.20834 9.34518 4.48816 9.62501 4.83334 9.62501L15.5087 9.62501C15.2359 9.89389 14.8342 10.2136 14.2475 10.6787L12.7784 11.8436C12.5079 12.0581 12.4625 12.4512 12.6769 12.7216C12.8914 12.9921 13.2845 13.0375 13.555 12.8231L15.054 11.6345C15.6144 11.1902 16.0768 10.8236 16.4062 10.4954C16.7443 10.1587 17.0245 9.78488 17.1006 9.30723C17.1169 9.20548 17.125 9.10283 17.125 9.00001C17.125 8.89719 17.1169 8.79454 17.1006 8.69278C17.0245 8.21514 16.7443 7.84136 16.4062 7.5046C16.0768 7.17644 15.6144 6.8098 15.054 6.36548L13.555 5.17694Z" fill="#D32F2F"/>
</g>
</g>
</svg>
