<svg width="18" height="19" viewBox="0 0 18 19" fill="none" xmlns="http://www.w3.org/2000/svg">
<path d="M11.8353 2.35225C11.6156 2.13258 11.2594 2.13258 11.0398 2.35225C10.8201 2.57192 10.8201 2.92808 11.0398 3.14775L11.5795 3.6875L8.12865 3.68749C6.84894 3.68729 6.06803 3.68716 5.41739 3.89857C4.1045 4.32515 3.07518 5.35448 2.64859 6.66736C2.43719 7.318 2.43731 8.09891 2.43751 9.37862V9.62138C2.43731 10.9011 2.43719 11.682 2.64859 12.3326C2.74459 12.6281 3.06193 12.7898 3.35739 12.6938C3.65284 12.5978 3.81453 12.2804 3.71853 11.985C3.56946 11.5262 3.56252 10.9397 3.56252 9.5C3.56252 8.06026 3.56946 7.47379 3.71853 7.01501C4.03383 6.04461 4.79464 5.28381 5.76503 4.96851C6.22382 4.81944 6.81028 4.8125 8.25002 4.8125H11.3839L10.8899 5.22413C10.6513 5.42301 10.619 5.7777 10.8179 6.01635C11.0168 6.25501 11.3715 6.28725 11.6101 6.08837L12.6667 5.20789C12.9549 4.96773 13.113 4.63085 13.136 4.2877C13.1603 3.92577 13.0347 3.5517 12.7545 3.27152L11.8353 2.35225Z" fill="#2D264B"/>
<path d="M15.3515 6.66736C15.2555 6.37191 14.9381 6.21022 14.6427 6.30622C14.3472 6.40222 14.1855 6.71955 14.2815 7.01501C14.4306 7.47379 14.4375 8.06026 14.4375 9.5C14.4375 10.9397 14.4306 11.5262 14.2815 11.985C13.9662 12.9554 13.2054 13.7162 12.235 14.0315C11.7762 14.1806 11.1898 14.1875 9.75002 14.1875H8.25002C7.52458 14.1875 7.01583 14.1858 6.63058 14.1649L7.14777 13.6477C7.36744 13.4281 7.36744 13.0719 7.14777 12.8523C6.9281 12.6326 6.57195 12.6326 6.35228 12.8523L5.43301 13.7715C5.23181 13.9727 5.10947 14.2236 5.0663 14.484C4.99333 14.9241 5.14677 15.3962 5.52084 15.7079L6.57742 16.5884C6.81608 16.7873 7.17077 16.755 7.36965 16.5164C7.56853 16.2777 7.53628 15.923 7.29763 15.7241L6.78668 15.2983C7.16864 15.3126 7.60912 15.3126 8.1332 15.3125H9.8714C11.1511 15.3127 11.932 15.3128 12.5827 15.1014C13.8955 14.6748 14.9249 13.6455 15.3515 12.3326C15.5629 11.682 15.5627 10.9011 15.5625 9.62137V9.37863C15.5627 8.09891 15.5629 7.318 15.3515 6.66736Z" fill="#2D264B"/>
<path d="M11.8353 2.35225C11.6156 2.13258 11.2594 2.13258 11.0398 2.35225C10.8201 2.57192 10.8201 2.92808 11.0398 3.14775L11.5795 3.6875L8.12865 3.68749C6.84894 3.68729 6.06803 3.68716 5.41739 3.89857C4.1045 4.32515 3.07518 5.35448 2.64859 6.66736C2.43719 7.318 2.43731 8.09891 2.43751 9.37862V9.62138C2.43731 10.9011 2.43719 11.682 2.64859 12.3326C2.74459 12.6281 3.06193 12.7898 3.35739 12.6938C3.65284 12.5978 3.81453 12.2804 3.71853 11.985C3.56946 11.5262 3.56252 10.9397 3.56252 9.5C3.56252 8.06026 3.56946 7.47379 3.71853 7.01501C4.03383 6.04461 4.79464 5.28381 5.76503 4.96851C6.22382 4.81944 6.81028 4.8125 8.25002 4.8125H11.3839L10.8899 5.22413C10.6513 5.42301 10.619 5.7777 10.8179 6.01635C11.0168 6.25501 11.3715 6.28725 11.6101 6.08837L12.6667 5.20789C12.9549 4.96773 13.113 4.63085 13.136 4.2877C13.1603 3.92577 13.0347 3.5517 12.7545 3.27152L11.8353 2.35225Z" stroke="#010101"/>
<path d="M15.3515 6.66736C15.2555 6.37191 14.9381 6.21022 14.6427 6.30622C14.3472 6.40222 14.1855 6.71955 14.2815 7.01501C14.4306 7.47379 14.4375 8.06026 14.4375 9.5C14.4375 10.9397 14.4306 11.5262 14.2815 11.985C13.9662 12.9554 13.2054 13.7162 12.235 14.0315C11.7762 14.1806 11.1898 14.1875 9.75002 14.1875H8.25002C7.52458 14.1875 7.01583 14.1858 6.63058 14.1649L7.14777 13.6477C7.36744 13.4281 7.36744 13.0719 7.14777 12.8523C6.9281 12.6326 6.57195 12.6326 6.35228 12.8523L5.43301 13.7715C5.23181 13.9727 5.10947 14.2236 5.0663 14.484C4.99333 14.9241 5.14677 15.3962 5.52084 15.7079L6.57742 16.5884C6.81608 16.7873 7.17077 16.755 7.36965 16.5164C7.56853 16.2777 7.53628 15.923 7.29763 15.7241L6.78668 15.2983C7.16864 15.3126 7.60912 15.3126 8.1332 15.3125H9.8714C11.1511 15.3127 11.932 15.3128 12.5827 15.1014C13.8955 14.6748 14.9249 13.6455 15.3515 12.3326C15.5629 11.682 15.5627 10.9011 15.5625 9.62137V9.37863C15.5627 8.09891 15.5629 7.318 15.3515 6.66736Z" stroke="#010101"/>
</svg>
