<svg width="20" height="20" viewBox="0 0 20 20" fill="none" xmlns="http://www.w3.org/2000/svg">
<path d="M8.77297 5.38947C8.52781 5.14648 8.13209 5.14824 7.8891 5.39341C7.64611 5.63857 7.64788 6.0343 7.89304 6.27728L9.36218 7.73337C9.95843 8.32432 10.3674 8.73102 10.6442 9.07563C10.913 9.41037 11.0052 9.62539 11.0298 9.81795C11.0452 9.93887 11.0452 10.0612 11.0298 10.1821C11.0052 10.3747 10.913 10.5897 10.6442 10.9245C10.3674 11.2691 9.95843 11.6758 9.36218 12.2667L7.89304 13.7228C7.64788 13.9658 7.64611 14.3615 7.8891 14.6067C8.13209 14.8518 8.52781 14.8536 8.77297 14.6106L10.2686 13.1283C10.8319 12.57 11.2923 12.1137 11.6188 11.7072C11.9583 11.2844 12.2041 10.8553 12.2698 10.3402C12.2985 10.1143 12.2985 9.88576 12.2698 9.65991C12.2041 9.14481 11.9583 8.71569 11.6188 8.29292C11.2923 7.88636 10.8319 7.43007 10.2686 6.87179L8.77297 5.38947Z" fill="#2D264B"/>
</svg>
