<svg width="18" height="20" viewBox="0 0 18 20" fill="none" xmlns="http://www.w3.org/2000/svg">
<g id="Setting">
<g id="Vector">
<path fill-rule="evenodd" clip-rule="evenodd" d="M9.00028 6.87499C7.27439 6.87499 5.87528 8.2741 5.87528 9.99999C5.87528 11.7259 7.27439 13.125 9.00028 13.125C10.7262 13.125 12.1253 11.7259 12.1253 9.99999C12.1253 8.2741 10.7262 6.87499 9.00028 6.87499ZM7.12528 9.99999C7.12528 8.96446 7.96475 8.12499 9.00028 8.12499C10.0358 8.12499 10.8753 8.96446 10.8753 9.99999C10.8753 11.0355 10.0358 11.875 9.00028 11.875C7.96475 11.875 7.12528 11.0355 7.12528 9.99999Z" fill="#71899E"/>
<path fill-rule="evenodd" clip-rule="evenodd" d="M11.8459 2.69356C11.0289 -0.169257 6.97169 -0.169256 6.15468 2.69356C5.90155 3.58056 4.99026 4.1067 4.09552 3.88242C1.20774 3.15856 -0.820841 6.67218 1.24993 8.81114C1.89152 9.47386 1.89152 10.5261 1.24992 11.1889C-0.820842 13.3278 1.20774 16.8414 4.09552 16.1176C4.99026 15.8933 5.90155 16.4194 6.15469 17.3064C6.97169 20.1692 11.0289 20.1692 11.8459 17.3064C12.099 16.4194 13.0103 15.8933 13.905 16.1176C16.7928 16.8414 18.8214 13.3278 16.7506 11.1889C16.109 10.5261 16.109 9.47386 16.7506 8.81114C18.8214 6.67218 16.7928 3.15856 13.905 3.88242C13.0103 4.1067 12.099 3.58056 11.8459 2.69356ZM7.35669 3.0366C7.82859 1.38306 10.172 1.38306 10.6439 3.0366C11.0821 4.5723 12.6599 5.48321 14.209 5.09491C15.8769 4.67682 17.0486 6.70624 15.8525 7.94168C14.7417 9.08909 14.7417 10.9109 15.8525 12.0583C17.0486 13.2937 15.8769 15.3232 14.209 14.9051C12.6599 14.5168 11.0821 15.4277 10.6439 16.9634C10.172 18.6169 7.82859 18.6169 7.35669 16.9634C6.91843 15.4277 5.34068 14.5168 3.7916 14.9051C2.12364 15.3232 0.951955 13.2937 2.14801 12.0583C3.25883 10.9109 3.25883 9.08909 2.14801 7.94168C0.951955 6.70624 2.12365 4.67682 3.79159 5.09491C5.34068 5.48321 6.91843 4.5723 7.35669 3.0366Z" fill="#71899E"/>
</g>
</g>
</svg>
