<svg width="566" height="242" viewBox="0 0 566 242" fill="none" xmlns="http://www.w3.org/2000/svg">
<g filter="url(#filter0_d_3101_2393)">
<path d="M12.1303 37.4725L0 30.8854V224H566V30.8854L553.87 37.4725C546.727 41.3512 538.106 41.3512 530.964 37.4725L530.286 37.1047C523.144 33.226 514.523 33.226 507.38 37.1047L506.703 37.4725C499.56 41.3512 490.94 41.3512 483.797 37.4725L483.12 37.1047C475.977 33.226 467.356 33.226 460.214 37.1047L459.536 37.4725C452.394 41.3512 443.773 41.3512 436.63 37.4725L435.953 37.1047C428.81 33.226 420.19 33.226 413.047 37.1047L412.37 37.4725C405.227 41.3512 396.606 41.3512 389.464 37.4725L388.786 37.1047C381.644 33.226 373.023 33.226 365.88 37.1047L365.203 37.4725C358.06 41.3512 349.44 41.3512 342.297 37.4725L341.62 37.1047C334.477 33.226 325.856 33.226 318.714 37.1047L318.036 37.4725C310.894 41.3512 302.273 41.3512 295.13 37.4725L294.453 37.1047C287.31 33.226 278.69 33.226 271.547 37.1047L270.87 37.4725C263.727 41.3512 255.106 41.3512 247.964 37.4725L247.286 37.1047C240.144 33.226 231.523 33.226 224.38 37.1047L223.703 37.4725C216.56 41.3512 207.94 41.3512 200.797 37.4725L200.12 37.1047C192.977 33.226 184.356 33.226 177.214 37.1047L176.536 37.4725C169.394 41.3512 160.773 41.3512 153.63 37.4725L152.953 37.1047C145.81 33.226 137.19 33.226 130.047 37.1047L129.37 37.4725C122.227 41.3512 113.606 41.3512 106.464 37.4725L105.786 37.1047C98.6436 33.226 90.0231 33.226 82.8803 37.1047L82.203 37.4725C75.0603 41.3512 66.4397 41.3512 59.297 37.4725L58.6197 37.1047C51.4769 33.226 42.8564 33.226 35.7137 37.1047L35.0363 37.4725C27.8936 41.3512 19.2731 41.3512 12.1303 37.4725Z" fill="white"/>
</g>
<defs>
<filter id="filter0_d_3101_2393" x="-24" y="0.885376" width="614" height="241.115" filterUnits="userSpaceOnUse" color-interpolation-filters="sRGB">
<feFlood flood-opacity="0" result="BackgroundImageFix"/>
<feColorMatrix in="SourceAlpha" type="matrix" values="0 0 0 0 0 0 0 0 0 0 0 0 0 0 0 0 0 0 127 0" result="hardAlpha"/>
<feOffset dy="-6"/>
<feGaussianBlur stdDeviation="12"/>
<feColorMatrix type="matrix" values="0 0 0 0 0.439216 0 0 0 0 0.564706 0 0 0 0 0.690196 0 0 0 0.12 0"/>
<feBlend mode="normal" in2="BackgroundImageFix" result="effect1_dropShadow_3101_2393"/>
<feBlend mode="normal" in="SourceGraphic" in2="effect1_dropShadow_3101_2393" result="shape"/>
</filter>
</defs>
</svg>
