<svg width="614" height="416" viewBox="0 0 614 416" fill="none" xmlns="http://www.w3.org/2000/svg">
<g filter="url(#filter0_d_3109_6656)">
<path d="M35.7917 42.202L24 30V398H590V30L578.208 42.202C571.762 48.8724 561.071 48.8724 554.625 42.202C548.179 35.5316 537.488 35.5316 531.042 42.202C524.596 48.8724 513.904 48.8724 507.458 42.202C501.012 35.5316 490.321 35.5316 483.875 42.202C477.429 48.8724 466.738 48.8724 460.292 42.202C453.846 35.5316 443.154 35.5316 436.708 42.202C430.262 48.8724 419.571 48.8724 413.125 42.202C406.679 35.5316 395.988 35.5316 389.542 42.202C383.096 48.8724 372.404 48.8724 365.958 42.202C359.512 35.5316 348.821 35.5316 342.375 42.202C335.929 48.8724 325.238 48.8724 318.792 42.202C312.346 35.5316 301.654 35.5316 295.208 42.202C288.762 48.8724 278.071 48.8724 271.625 42.202C265.179 35.5316 254.488 35.5316 248.042 42.202C241.596 48.8724 230.904 48.8724 224.458 42.202C218.012 35.5316 207.321 35.5316 200.875 42.202C194.429 48.8724 183.738 48.8724 177.292 42.202C170.846 35.5316 160.154 35.5316 153.708 42.202C147.262 48.8724 136.571 48.8724 130.125 42.202C123.679 35.5316 112.988 35.5316 106.542 42.202C100.096 48.8724 89.4044 48.8724 82.9583 42.202C76.5122 35.5316 65.8211 35.5316 59.375 42.202C52.9289 48.8724 42.2378 48.8724 35.7917 42.202Z" fill="white"/>
</g>
<defs>
<filter id="filter0_d_3109_6656" x="0" y="0" width="614" height="416" filterUnits="userSpaceOnUse" color-interpolation-filters="sRGB">
<feFlood flood-opacity="0" result="BackgroundImageFix"/>
<feColorMatrix in="SourceAlpha" type="matrix" values="0 0 0 0 0 0 0 0 0 0 0 0 0 0 0 0 0 0 127 0" result="hardAlpha"/>
<feOffset dy="-6"/>
<feGaussianBlur stdDeviation="12"/>
<feColorMatrix type="matrix" values="0 0 0 0 0.439216 0 0 0 0 0.564706 0 0 0 0 0.690196 0 0 0 0.12 0"/>
<feBlend mode="normal" in2="BackgroundImageFix" result="effect1_dropShadow_3109_6656"/>
<feBlend mode="normal" in="SourceGraphic" in2="effect1_dropShadow_3109_6656" result="shape"/>
</filter>
</defs>
</svg>
