<svg width="21" height="18" viewBox="0 0 21 18" fill="none" xmlns="http://www.w3.org/2000/svg">
<g id="Scan 15">
<g id="Vector">
<path d="M12.3756 1.5C12.3756 1.15482 12.6555 0.875 13.0006 0.875H13.834C16.4803 0.875 18.6256 3.0203 18.6256 5.66667V6.5C18.6256 6.84518 18.3458 7.125 18.0006 7.125C17.6555 7.125 17.3756 6.84518 17.3756 6.5V5.66667C17.3756 3.71066 15.79 2.125 13.834 2.125H13.0006C12.6555 2.125 12.3756 1.84518 12.3756 1.5Z" fill="#71899E"/>
<path d="M2.37565 5.66667C2.37565 3.0203 4.52095 0.875 7.16732 0.875H8.00065C8.34583 0.875 8.62565 1.15482 8.62565 1.5C8.62565 1.84518 8.34583 2.125 8.00065 2.125H7.16732C5.21131 2.125 3.62565 3.71066 3.62565 5.66667V6.5C3.62565 6.84518 3.34583 7.125 3.00065 7.125C2.65547 7.125 2.37565 6.84518 2.37565 6.5V5.66667Z" fill="#71899E"/>
<path d="M0.708984 10.6667C0.708984 10.3215 0.988806 10.0417 1.33398 10.0417H19.6673C20.0125 10.0417 20.2923 10.3215 20.2923 10.6667C20.2923 11.0118 20.0125 11.2917 19.6673 11.2917H18.5901C18.6131 11.3568 18.6256 11.427 18.6256 11.5V12.3333C18.6256 14.9797 16.4803 17.125 13.834 17.125H13.0006C12.6555 17.125 12.3756 16.8452 12.3756 16.5C12.3756 16.1548 12.6555 15.875 13.0006 15.875H13.834C15.79 15.875 17.3756 14.2893 17.3756 12.3333V11.5C17.3756 11.427 17.3882 11.3568 17.4112 11.2917H14.583C14.235 12.8418 12.8503 14 11.1951 14H9.80621C8.151 14 6.7663 12.8418 6.41828 11.2917H3.59009C3.61312 11.3568 3.62565 11.427 3.62565 11.5V12.3333C3.62565 14.2893 5.21131 15.875 7.16732 15.875H8.00065C8.34583 15.875 8.62565 16.1548 8.62565 16.5C8.62565 16.8452 8.34583 17.125 8.00065 17.125H7.16732C4.52095 17.125 2.37565 14.9797 2.37565 12.3333V11.5C2.37565 11.427 2.38818 11.3568 2.41121 11.2917H1.33398C0.988806 11.2917 0.708984 11.0118 0.708984 10.6667Z" fill="#71899E"/>
<path d="M9.80621 4C7.88855 4 6.33398 5.55457 6.33398 7.47222C6.33398 7.85575 6.6449 8.16667 7.02843 8.16667H13.9729C14.3564 8.16667 14.6673 7.85575 14.6673 7.47222C14.6673 5.55457 13.1128 4 11.1951 4H9.80621Z" fill="#71899E"/>
</g>
</g>
</svg>
