<svg width="24" height="24" viewBox="0 0 24 24" fill="none" xmlns="http://www.w3.org/2000/svg">
<path d="M15.5799 11.9999C15.5799 13.9799 13.9799 15.5799 11.9999 15.5799C10.0199 15.5799 8.41992 13.9799 8.41992 11.9999C8.41992 10.0199 10.0199 8.41992 11.9999 8.41992C13.9799 8.41992 15.5799 10.0199 15.5799 11.9999Z" stroke="#217bf4" stroke-width="1.5" stroke-linecap="round" stroke-linejoin="round"/>
<path d="M12.0001 20.2702C15.5301 20.2702 18.8201 18.1902 21.1101 14.5902C22.0101 13.1802 22.0101 10.8102 21.1101 9.40021C18.8201 5.80021 15.5301 3.72021 12.0001 3.72021C8.47009 3.72021 5.18009 5.80021 2.89009 9.40021C1.99009 10.8102 1.99009 13.1802 2.89009 14.5902C5.18009 18.1902 8.47009 20.2702 12.0001 20.2702Z" stroke="#217bf4" stroke-width="1.5" stroke-linecap="round" stroke-linejoin="round"/>
</svg>
