<svg width="31" height="40" viewBox="0 0 31 40" fill="none" xmlns="http://www.w3.org/2000/svg">
<path d="M11.9027 1.55906C13.4653 0.908321 14.9191 0.298255 15.1501 0.189798C15.3811 0.0948992 15.6393 0 15.7208 0C15.8159 0 16.5904 0.50161 17.4192 1.12523C18.2617 1.74886 19.403 2.58939 20.9656 3.72818L18.6013 3.7553C16.8893 3.78241 16.1963 3.83664 16.0741 3.95865C15.9518 4.09422 15.8974 6.45315 15.8295 22.3962L15.3539 22.7623C15.0958 22.9656 14.5251 23.3723 14.0903 23.657C13.6555 23.9553 13.3294 24.24 13.343 24.2942C13.3701 24.3484 13.9408 24.8229 15.8295 26.3006L15.8567 30.3678C15.8838 32.6047 15.8567 34.4349 15.7887 34.4349C15.7344 34.4349 14.9871 33.9875 14.131 33.4316C13.275 32.8758 11.794 31.9268 9.10365 30.2322V24.1315C9.10365 20.7694 9.14441 18.058 9.19876 18.0851C9.2667 18.1122 9.83738 18.4511 10.5032 18.8578C11.1554 19.2645 11.7125 19.5492 11.7532 19.4815C11.794 19.4272 11.6173 19.007 11.3592 18.546C11.1146 18.0715 10.5032 16.9192 9.10365 14.2349L9.07648 2.73852L11.9027 1.55906Z" fill="#22A8F9"/>
<path d="M0.0679377 10.8185L3.12513 9.48992C4.80999 8.75784 6.27744 8.16133 6.39973 8.14778C6.58996 8.13422 6.60354 8.40536 6.53561 12.8114L5.29914 13.6926C4.63335 14.1807 4.07626 14.6009 4.07626 14.6416C4.06267 14.6823 4.66053 15.1703 5.38066 15.7262C6.44049 16.5531 6.67148 16.7972 6.60354 17.0141C6.56278 17.1632 6.52202 19.8611 6.52202 28.7409L5.86982 28.3613C5.51654 28.158 4.04909 27.2361 0 24.606L0.0679377 10.8185Z" fill="#22A8F9"/>
<path d="M18.3432 12.4047L21.5634 10.9541C23.3434 10.1542 24.838 9.48992 24.906 9.48992C24.9603 9.48992 25.0011 15.4957 25.0011 36.1973L30.1915 36.2651L29.4034 36.8073C28.955 37.1056 28.5067 37.4445 28.3708 37.553C28.2485 37.6614 27.4061 38.2851 26.5093 38.9358C25.0418 39.9932 24.838 40.1017 24.6342 39.939C24.4983 39.8441 24.3217 39.7357 24.2538 39.7085C24.1722 39.6814 23.6831 39.3967 23.1668 39.0714C22.6368 38.746 21.3324 37.9326 18.316 35.9939L18.3296 31.9268C18.3432 29.6899 18.3568 27.8461 18.3839 27.8326C18.3975 27.8055 18.9682 28.158 19.634 28.6053C20.2998 29.0527 20.8705 29.4052 20.8976 29.3916C20.9112 29.3645 20.3541 28.158 18.3432 24.0637V12.4047Z" fill="#22A8F9"/>
</svg>
