<svg width="20" height="20" viewBox="0 0 20 20" fill="none" xmlns="http://www.w3.org/2000/svg">
<path d="M16.3636 14.4699C16.0707 14.177 15.5958 14.177 15.3029 14.4699C15.01 14.7628 15.01 15.2377 15.3029 15.5306L16.3636 14.4699ZM18.6361 18.8639C18.929 19.1568 19.4039 19.1568 19.6968 18.8639C19.9897 18.571 19.9897 18.0961 19.6968 17.8032L18.6361 18.8639ZM15.3029 15.5306L18.6361 18.8639L19.6968 17.8032L16.3636 14.4699L15.3029 15.5306ZM9.1665 15.0835C5.43858 15.0835 2.4165 12.0614 2.4165 8.3335H0.916504C0.916504 12.8898 4.61016 16.5835 9.1665 16.5835V15.0835ZM15.9165 8.3335C15.9165 12.0614 12.8944 15.0835 9.1665 15.0835V16.5835C13.7229 16.5835 17.4165 12.8898 17.4165 8.3335H15.9165ZM9.1665 1.5835C12.8944 1.5835 15.9165 4.60557 15.9165 8.3335H17.4165C17.4165 3.77715 13.7229 0.0834961 9.1665 0.0834961V1.5835ZM9.1665 0.0834961C4.61016 0.0834961 0.916504 3.77715 0.916504 8.3335H2.4165C2.4165 4.60557 5.43858 1.5835 9.1665 1.5835V0.0834961Z" fill="#71899E"/>
</svg>
