<svg width="17" height="17" viewBox="0 0 17 17" fill="none" xmlns="http://www.w3.org/2000/svg">
<g id="Close">
<path id="Vector" d="M16.0304 2.03033C16.3232 1.73744 16.3232 1.26256 16.0304 0.96967C15.7375 0.676777 15.2626 0.676777 14.9697 0.96967L8.50001 7.43935L2.03033 0.969673C1.73744 0.67678 1.26256 0.67678 0.96967 0.969673C0.676777 1.26257 0.676777 1.73744 0.96967 2.03033L7.43935 8.50001L0.969697 14.9697C0.676804 15.2626 0.676804 15.7374 0.969697 16.0303C1.26259 16.3232 1.73746 16.3232 2.03036 16.0303L8.50001 9.56067L14.9697 16.0303C15.2626 16.3232 15.7374 16.3232 16.0303 16.0303C16.3232 15.7374 16.3232 15.2626 16.0303 14.9697L9.56067 8.50002L16.0304 2.03033Z" fill="#71899E"/>
</g>
</svg>
